<?xml version="1.0" encoding="iso-8859-1"?>
<!-- Generator: Adobe Illustrator 19.0.0, SVG Export Plug-In . SVG Version: 6.00 Build 0)  -->
<svg version="1.1" id="Layer_1" xmlns="http://www.w3.org/2000/svg" xmlns:xlink="http://www.w3.org/1999/xlink" x="0px" y="0px"
	 viewBox="0 0 512 512" style="enable-background:new 0 0 512 512;" xml:space="preserve">
<g>
	<path style="fill:#FF675C;" d="M233.635,379.2c0-11.193,20.267-41.6,20.267-41.6s20.267,30.407,20.267,41.6
		c0,11.193-9.074,20.267-20.267,20.267C242.708,399.467,233.635,390.393,233.635,379.2z"/>
	<path style="fill:#FF675C;" d="M192.035,434.667c0-11.193,20.267-41.6,20.267-41.6s20.267,30.407,20.267,41.6
		s-9.074,20.267-20.267,20.267C201.108,454.933,192.035,445.859,192.035,434.667z"/>
	<path style="fill:#FF675C;" d="M234.702,483.733c0-11.193,20.267-41.6,20.267-41.6s20.267,30.407,20.267,41.6
		c0,11.193-9.074,20.267-20.267,20.267C243.775,504,234.702,494.926,234.702,483.733z"/>
</g>
<polygon style="fill:#E0DDDF;" points="49.101,8 198.435,187.2 198.435,333.333 266.702,290.667 266.702,187.2 415.928,8.128 "/>
<polygon style="fill:#C1BCBF;" points="49.101,8 198.435,187.2 233.635,187.2 84.311,8.012 "/>
<polygon style="fill:#FF675C;" points="198.435,187.2 198.435,228.8 266.702,228.8 266.702,187.2 369.368,64 95.768,64 "/>
<polygon style="fill:#C1BCBF;" points="198.435,187.2 198.435,333.333 228.302,314.667 228.302,187.2 "/>
<g>
	<rect x="198.432" y="187.2" style="fill:#DB3D5A;" width="29.867" height="41.6"/>
	<polygon style="fill:#DB3D5A;" points="233.635,187.2 130.968,64 95.768,64 198.435,187.2 	"/>
</g>
<path d="M215.502,58.667h29.867c4.419,0,8-3.582,8-8s-3.581-8-8-8h-29.867c-4.418,0-8,3.582-8,8S211.083,58.667,215.502,58.667z"/>
<path d="M215.502,88.533h29.867c4.419,0,8-3.582,8-8c0-4.418-3.581-8-8-8h-29.867c-4.418,0-8,3.582-8,8
	C207.502,84.951,211.083,88.533,215.502,88.533z"/>
<path d="M215.502,118.4h29.867c4.419,0,8-3.582,8-8c0-4.418-3.581-8-8-8h-29.867c-4.418,0-8,3.582-8,8
	C207.502,114.818,211.083,118.4,215.502,118.4z"/>
<path d="M215.502,148.267h29.867c4.419,0,8-3.582,8-8c0-4.418-3.581-8-8-8h-29.867c-4.418,0-8,3.582-8,8
	C207.502,144.685,211.083,148.267,215.502,148.267z"/>
<path d="M489.642,59.939c-8.73-33.086-38.866-57.511-72.789-59.754c-0.288-0.033-0.577-0.054-0.867-0.057
	C414.585,0.052,27.768,0,27.768,0c-4.418,0-8,3.582-8,8s3.582,8,8,8h17.586l145.081,174.096v148.571
	c0,2.909,1.578,5.587,4.122,6.997c1.209,0.67,2.544,1.003,3.878,1.003c1.473,0,2.945-0.406,4.24-1.216l68.267-42.667
	c2.339-1.462,3.76-4.026,3.76-6.784V190.096l63.685-76.422c5.524,12.102,14.15,22.961,24.832,31.09
	c3.731,2.838,9.255,1.783,11.686-2.22c2.097-3.452,1.216-8.067-1.997-10.513c-10.234-7.788-18.126-18.665-22.225-30.625
	c-0.194-0.567-0.451-1.095-0.752-1.586l69.453-83.343c25.719,3.182,48.099,22.193,54.787,47.542
	c7.379,27.972-5.569,58.582-30.786,72.785c-14.37,8.094-31.806,10.355-47.84,6.207c-4.277-1.106-8.642,1.463-9.749,5.74
	c-1.107,4.277,1.462,8.642,5.741,9.749c6.564,1.699,13.317,2.535,20.066,2.535c13.805,0,27.582-3.504,39.634-10.291
	c15.31-8.622,27.578-22.441,34.547-38.908C492.755,95.363,494.126,76.932,489.642,59.939
	C480.913,26.853,494.126,76.932,489.642,59.939z M398.954,16l-136,163.2h-60.773L66.181,16H398.954z M206.435,324.233V195.2h52.267
	v96.366L206.435,324.233z"/>
<path d="M282.168,379.2c0-12.633-16.541-38.431-21.61-46.037c-1.485-2.226-3.982-3.563-6.657-3.563
	c-2.675,0-5.173,1.337-6.657,3.563c-5.069,7.606-21.61,33.404-21.61,46.037c0,15.586,12.681,28.267,28.267,28.267
	S282.168,394.786,282.168,379.2z M241.635,379.2c0-3.958,5.59-15.328,12.268-26.57c6.676,11.235,12.266,22.604,12.266,26.57
	c0,6.764-5.503,12.267-12.267,12.267C247.138,391.467,241.635,385.964,241.635,379.2z"/>
<path d="M240.568,434.667c0-12.633-16.54-38.431-21.61-46.037c-1.484-2.226-3.982-3.563-6.657-3.563
	c-2.675,0-5.173,1.337-6.657,3.563c-5.07,7.606-21.61,33.404-21.61,46.037c0,15.586,12.681,28.267,28.267,28.267
	S240.568,450.253,240.568,434.667z M212.302,446.933c-6.764,0-12.267-5.503-12.267-12.267c0-3.958,5.591-15.328,12.268-26.57
	c6.675,11.235,12.266,22.604,12.266,26.57C224.568,441.43,219.065,446.933,212.302,446.933z"/>
<path d="M254.968,434.133c-2.675,0-5.173,1.337-6.657,3.563c-5.069,7.606-21.61,33.404-21.61,46.037
	c0,15.586,12.681,28.267,28.267,28.267c15.586,0,28.267-12.681,28.267-28.267c0-12.633-16.541-38.431-21.61-46.037
	C260.14,435.47,257.643,434.133,254.968,434.133z M254.968,496c-6.764,0-12.267-5.503-12.267-12.267
	c0-3.958,5.59-15.328,12.268-26.57c6.676,11.235,12.266,22.604,12.266,26.57C267.235,490.497,261.732,496,254.968,496z"/>
<g>
</g>
<g>
</g>
<g>
</g>
<g>
</g>
<g>
</g>
<g>
</g>
<g>
</g>
<g>
</g>
<g>
</g>
<g>
</g>
<g>
</g>
<g>
</g>
<g>
</g>
<g>
</g>
<g>
</g>
</svg>
