<?xml version="1.0" encoding="iso-8859-1"?>
<!-- Generator: Adobe Illustrator 19.0.0, SVG Export Plug-In . SVG Version: 6.00 Build 0)  -->
<svg version="1.1" id="Layer_1" xmlns="http://www.w3.org/2000/svg" xmlns:xlink="http://www.w3.org/1999/xlink" x="0px" y="0px"
	 viewBox="0 0 512.001 512.001" style="enable-background:new 0 0 512.001 512.001;" xml:space="preserve">
<polyline style="fill:#B9785F;" points="472.424,447.954 471.942,191.457 39.096,192.27 39.578,448.768 "/>
<g>
	<polyline style="fill:#AA6455;" points="472.417,447.954 472.296,383.891 39.45,384.705 39.57,448.768 	"/>
	<path style="fill:#AA6455;" d="M39.096,181.69l0.063,43.945c13.265,0.314,23.994-4.904,23.969-18.173
		c0.025,13.281,10.811,18.09,24.092,18.065c13.281-0.025,24.027-4.875,24.002-18.156c0.025,13.281,10.811,18.089,24.092,18.064
		c13.281-0.025,24.027-4.875,24.002-18.155c0.025,13.281,10.811,18.089,24.092,18.064c13.281-0.025,24.027-4.875,24.002-18.155
		c0.025,13.281,10.811,18.09,24.092,18.065s24.027-4.875,24.002-18.156c0.025,13.281,10.811,18.09,24.092,18.065
		s24.027-4.875,24.002-18.155c0.025,13.281,10.811,18.09,24.092,18.065c13.281-0.025,24.027-4.875,24.002-18.156
		c0.025,13.281,10.811,18.089,24.092,18.064c13.281-0.025,24.027-4.875,24.002-18.155c0.025,13.281,10.811,18.09,24.092,18.064
		c13.281-0.024,24.027-4.875,24.002-18.155c0.025,13.292,10.829,18.463,24.125,18.08l-0.063-43.942L39.096,181.69z"/>
</g>
<path style="fill:#B4E1FA;" d="M266.874,228.381H77.504c-6.585,0-11.923,5.338-11.923,11.923v113.221
	c0,6.585,5.338,11.923,11.923,11.923h189.37c6.585,0,11.923-5.338,11.923-11.923V240.304
	C278.797,233.718,273.459,228.381,266.874,228.381z"/>
<path style="fill:#A0D2F0;" d="M266.874,228.381H77.504c-6.585,0-11.923,5.338-11.923,11.923v15.931h213.217v-15.931
	C278.797,233.718,273.459,228.381,266.874,228.381z"/>
<rect x="311.937" y="208.631" transform="matrix(-1 0.0019 -0.0019 -1 736.6718 608.9393)" style="fill:#B4E1FA;" width="112.22" height="192.376"/>
<rect x="311.937" y="255.764" transform="matrix(-1 0.0019 -0.0019 -1 736.7621 703.2036)" style="fill:#5B5D6E;" width="112.22" height="192.376"/>
<path style="fill:#A0D2F0;" d="M311.756,181.177l0.056,40.537c4.241,2.365,9.796,3.372,15.877,3.361
	c13.281-0.025,24.027-4.875,24.002-18.156c0.025,13.281,10.811,18.089,24.092,18.064s24.027-4.875,24.002-18.155
	c0.025,13.281,10.811,18.09,24.092,18.064c0.054,0,0.107-0.002,0.16-0.002l-0.063-43.925L311.756,181.177z"/>
<path style="fill:#FF6464;" d="M159.089,63.79l0.226,120.235c0.025,13.281,10.811,24.026,24.092,24.002
	c13.281-0.025,24.027-10.811,24.002-24.092L207.183,63.7L159.089,63.79z"/>
<g>
	<path style="fill:#EFF2FA;" d="M207.183,63.7l0.226,120.235c0.025,13.281,10.811,24.027,24.092,24.002
		c13.281-0.025,24.027-10.812,24.002-24.092L255.277,63.61L207.183,63.7z"/>
	<path style="fill:#EFF2FA;" d="M110.995,63.88l0.226,120.235c0.025,13.281,10.811,24.026,24.092,24.002
		c13.281-0.025,24.027-10.811,24.002-24.092L159.089,63.79L110.995,63.88z"/>
</g>
<path style="fill:#FF6464;" d="M62.901,63.972l0.225,120.235c0.025,13.281,10.811,24.027,24.092,24.002
	c13.281-0.025,24.027-10.811,24.002-24.092l-0.226-120.235L62.901,63.972z"/>
<path style="fill:#EFF2FA;" d="M22.823,64.047c-4.427,0.008-8.009,3.604-8.001,8.031l0.208,110.859
	c0.024,13.021,9.797,24.674,22.802,25.331c13.869,0.7,25.321-10.351,25.294-24.061L62.901,63.971L22.823,64.047z"/>
<g>
	<path style="fill:#FF6464;" d="M495.761,71.174c-0.008-4.427-3.604-8.009-8.031-8.001l-40.078,0.075l0.225,120.235
		c0.026,13.71,11.519,24.717,25.386,23.965c13.002-0.705,22.73-12.395,22.706-25.417L495.761,71.174z"/>
	<path style="fill:#FF6464;" d="M351.465,63.429l0.225,120.235c0.025,13.281,10.811,24.026,24.092,24.002
		s24.027-10.811,24.002-24.092l-0.222-120.235L351.465,63.429z"/>
</g>
<path style="fill:#EFF2FA;" d="M447.653,63.248l-48.091,0.09l0.222,120.235c0.025,13.281,10.811,24.027,24.092,24.002
	c13.281-0.024,24.027-10.811,24.002-24.092L447.653,63.248z"/>
<path style="fill:#FF6464;" d="M255.277,63.61l0.226,120.235c0.025,13.281,10.811,24.027,24.092,24.002s24.027-10.812,24.002-24.092
	L303.371,63.52L255.277,63.61z"/>
<path style="fill:#EFF2FA;" d="M303.371,63.52l0.226,120.235c0.025,13.281,10.811,24.027,24.092,24.002
	c13.281-0.025,24.027-10.811,24.002-24.092L351.466,63.43L303.371,63.52z"/>
<path d="M504.485,440.38c-0.004,0-0.01,0-0.014,0l-24.718,0.046l-0.043-22.962c0.109-0.512,0.169-1.042,0.168-1.586
	s-0.063-1.074-0.174-1.586l-0.054-28.889c0.109-0.512,0.169-1.043,0.168-1.587c-0.001-0.545-0.063-1.075-0.174-1.586l-0.317-168.13
	c13.95-3.456,24.187-16.556,24.159-32.082l-0.042-22.684c0,0,0-0.002,0-0.003l-0.166-88.17c-0.016-8.548-6.984-15.502-15.559-15.502
	l-40.068,0.075c-0.007,0-0.013,0-0.02,0l-96.172,0.181c-0.003,0-0.007,0-0.01,0L62.895,56.456c-0.002,0-0.004,0-0.005,0
	c-0.002,0-0.004,0-0.006,0l-40.076,0.075c-8.563,0.017-15.516,6.997-15.5,15.559l0.208,110.859
	c0.029,15.463,10.231,28.483,24.107,31.951l0.426,226.368l-24.548,0.046c-4.15,0.008-7.509,3.379-7.501,7.529
	c0.008,4.146,3.371,7.501,7.515,7.501c0.005,0,0.01,0,0.015,0l496.971-0.935c4.15-0.008,7.509-3.379,7.501-7.529
	C511.992,443.735,508.629,440.38,504.485,440.38z M46.652,214.901c5.544-1.359,10.63-4.208,14.766-8.352
	c0.617-0.618,1.205-1.257,1.763-1.916c5.802,6.783,14.428,11.09,24.051,11.09c8.43-0.017,16.35-3.314,22.3-9.286
	c0.609-0.611,1.19-1.243,1.742-1.895c5.802,6.782,14.428,11.09,24.051,11.09c9.626-0.019,18.251-4.366,24.031-11.194
	c5.802,6.789,14.433,11.103,24.062,11.103c8.43-0.016,16.35-3.313,22.301-9.286c0.608-0.611,1.19-1.243,1.742-1.895
	c5.802,6.783,14.428,11.09,24.051,11.09c9.626-0.019,18.251-4.367,24.032-11.194c5.802,6.788,14.432,11.102,24.061,11.103
	c8.43-0.016,16.35-3.313,22.301-9.286c0.609-0.611,1.19-1.243,1.742-1.895c0.307,0.358,0.625,0.705,0.947,1.049
	c-0.292,0.804-0.457,1.666-0.456,2.57l0.09,48.094l0.227,120.736l-257.503,0.483L46.652,214.901z M416.8,440.544l-97.19,0.183
	l-0.106-56.606c0-0.001,0-0.003,0-0.003v-0.005l-0.226-120.732l97.19-0.184l0.226,120.73v0.006v0.006L416.8,440.544z
	 M295.283,188.866l-32.316-32.195l-0.05-26.838l33.127,33.003l0.039,20.934C296.086,185.526,295.805,187.239,295.283,188.866z
	 M296.003,141.579l-33.127-33.003l-0.05-26.838l33.127,33.003L296.003,141.579z M263.006,177.926l21.666,21.585
	c-1.631,0.529-3.352,0.817-5.125,0.82c-9.098-0.001-16.513-7.402-16.53-16.5L263.006,177.926z M392.27,183.587
	c0.003,1.777-0.284,3.487-0.803,5.094l-32.313-32.192l-0.05-26.838l33.127,33.003L392.27,183.587z M359.194,177.745l21.661,21.58
	c-1.612,0.527-3.331,0.823-5.118,0.826c-9.099,0-16.514-7.402-16.532-16.501L359.194,177.745z M392.191,141.399l-33.127-33.003
	l-0.05-26.839l33.127,33.003L392.191,141.399z M350.003,205.985c0.609-0.611,1.19-1.243,1.742-1.895
	c5.802,6.782,14.428,11.09,24.051,11.09c9.626-0.019,18.251-4.366,24.031-11.193c4.241,4.963,9.998,8.592,16.546,10.191
	l0.064,33.989l-97.19,0.183l-0.064-34.247c2.711,0.757,5.567,1.166,8.519,1.166C336.133,215.255,344.053,211.957,350.003,205.985z
	 M431.483,255.655l-0.078-41.479c5.554-1.362,10.648-4.217,14.787-8.372c0.608-0.61,1.188-1.241,1.739-1.892
	c4.208,4.924,9.892,8.536,16.365,10.149l0.306,162.267l-32.893,0.062L431.483,255.655z M472.858,199.944
	c-9.53,0.533-17.447-7.069-17.464-16.475l-0.011-5.906l21.611,21.53C475.674,199.563,474.291,199.867,472.858,199.944z
	 M455.342,156.308l-0.05-26.838l33.127,33.003l0.037,19.572c0.004,2.167-0.38,4.255-1.055,6.201L455.342,156.308z M488.379,141.218
	l-33.127-33.003l-0.05-26.838l33.127,33.003L488.379,141.218z M440.364,183.496c0.008,4.417-1.703,8.572-4.82,11.7
	c-3.117,3.128-7.264,4.857-11.714,4.864c-9.099,0-16.513-7.402-16.531-16.5l-0.045-24.045c0,0,0-0.003,0-0.004l-0.165-88.671
	l33.065-0.062L440.364,183.496z M392.101,93.305l-22.48-22.396l22.438-0.042L392.101,93.305z M344.041,111.529v0.016l0.09,48.08
	v0.012l0.045,24.041c0.008,4.417-1.703,8.572-4.82,11.7c-3.116,3.128-7.264,4.856-11.714,4.864c-9.098,0-16.513-7.402-16.53-16.501
	l-0.135-72.14c0,0,0-0.003,0-0.004L310.9,71.018l33.065-0.062L344.041,111.529z M295.913,93.484l-22.48-22.395l22.438-0.042
	L295.913,93.484z M247.988,183.859c0.017,9.117-7.385,16.546-16.532,16.563c-9.099,0-16.515-7.402-16.532-16.501l-0.045-24.044
	c0,0,0-0.005,0-0.008l-0.09-48.088c0,0,0-0.003,0-0.004L214.712,71.2l33.065-0.062L247.988,183.859z M199.095,189.046
	l-32.317-32.195l-0.05-26.837l33.127,33.003l0.039,20.934C199.898,185.707,199.617,187.419,199.095,189.046z M199.815,141.76
	l-33.127-33.003l-0.05-26.838l33.127,33.003L199.815,141.76z M166.818,178.106l21.667,21.585c-1.631,0.529-3.353,0.818-5.125,0.821
	c-9.098,0-16.513-7.402-16.531-16.501L166.818,178.106z M199.725,93.666l-22.48-22.395l22.438-0.042L199.725,93.666z M151.8,184.038
	c0.017,9.117-7.385,16.547-16.532,16.564c-9.099,0-16.515-7.402-16.532-16.502l0,0l-0.045-24.044v-0.004l-0.166-88.672l33.065-0.062
	L151.8,184.038z M103.627,141.941L70.5,108.939l-0.05-26.839l33.127,33.003L103.627,141.941z M103.667,163.196l0.039,20.934v0.001
	c0.003,1.757-0.277,3.47-0.799,5.096l-32.316-32.195l-0.05-26.838L103.667,163.196z M70.631,178.287l21.667,21.585
	c-1.631,0.529-3.352,0.817-5.123,0.821c-9.099,0-16.515-7.402-16.532-16.501L70.631,178.287z M103.536,93.847L81.057,71.451
	l22.437-0.042L103.536,93.847z M431.737,391.42l32.893-0.062l0.032,17.033l-8.345,0.015c-4.15,0.008-7.509,3.379-7.501,7.529
	c0.008,4.146,3.371,7.501,7.515,7.501c0.005,0,0.01,0,0.014,0l8.346-0.015l0.032,17.033l-32.893,0.062L431.737,391.42z
	 M487.746,70.687c0.277,0,0.501,0.224,0.502,0.5l0.041,21.937L465.81,70.728L487.746,70.687z M22.545,182.922L22.337,72.063
	c0-0.277,0.224-0.502,0.5-0.503L55.4,71.499l0.076,40.571v0.016l0.09,48.08v0.012l0.045,24.041
	c0.008,4.423-1.708,8.581-4.831,11.711c-3.327,3.333-7.805,5.067-12.57,4.83C29.591,200.326,22.563,192.324,22.545,182.922z
	 M47.046,424.206l232.955-0.438c4.15-0.008,7.509-3.379,7.501-7.529c-0.008-4.146-3.371-7.501-7.515-7.501c-0.005,0-0.01,0-0.015,0
	l-232.954,0.438l-0.032-17.033l257.503-0.483l0.092,49.096L47.078,441.24L47.046,424.206z"/>
<path d="M335.962,336.491c-0.005,0-0.01,0-0.015,0c-4.15,0.008-7.509,3.379-7.501,7.529l0.03,16.031
	c0.008,4.146,3.371,7.501,7.515,7.501c0.005,0,0.01,0,0.015,0c4.15-0.008,7.509-3.379,7.501-7.529l-0.03-16.031
	C343.468,339.847,340.105,336.491,335.962,336.491z"/>
<path d="M108.614,234.917c-2.941-2.93-7.698-2.921-10.628,0.021c-2.929,2.941-2.92,7.698,0.02,10.627l112.43,112.008
	c1.467,1.461,3.385,2.191,5.303,2.191c1.928,0,3.856-0.737,5.323-2.211c2.929-2.941,2.92-7.698-0.02-10.627L108.614,234.917z"/>
<path d="M180.801,258.829c-2.941-2.93-7.698-2.921-10.628,0.021c-2.929,2.941-2.92,7.698,0.02,10.627l64.246,64.004
	c1.467,1.461,3.385,2.191,5.303,2.191c1.928,0,3.856-0.737,5.323-2.211c2.929-2.941,2.92-7.698-0.02-10.627L180.801,258.829z"/>
<g>
</g>
<g>
</g>
<g>
</g>
<g>
</g>
<g>
</g>
<g>
</g>
<g>
</g>
<g>
</g>
<g>
</g>
<g>
</g>
<g>
</g>
<g>
</g>
<g>
</g>
<g>
</g>
<g>
</g>
</svg>
